G04*
G04 #@! TF.GenerationSoftware,Altium Limited,Altium Designer,19.1.8 (144)*
G04*
G04 Layer_Color=32768*
%FSLAX25Y25*%
%MOIN*%
G70*
G01*
G75*
%ADD11C,0.00600*%
%ADD54C,0.00394*%
%ADD55C,0.00197*%
G36*
X95850Y42946D02*
X90426D01*
Y74054D01*
X95850D01*
Y74850D01*
X115150D01*
Y74054D01*
X120574D01*
Y42946D01*
X115150D01*
Y42150D01*
X95850D01*
Y42946D01*
D02*
G37*
D11*
Y42150D02*
Y42946D01*
Y42150D02*
X115150D01*
Y42946D01*
Y74054D02*
Y74850D01*
X95850D02*
X115150D01*
X95850Y74054D02*
Y74850D01*
X90426Y42946D02*
X95850D01*
X115150D02*
X120574D01*
X115150Y74054D02*
X120574D01*
X90426D02*
X95850D01*
D54*
X23031Y119500D02*
X26969D01*
X25000Y117532D02*
Y121468D01*
X20500Y70031D02*
Y73968D01*
X18531Y72000D02*
X22468D01*
X19031Y24500D02*
X22968D01*
X21000Y22532D02*
Y26469D01*
X152228Y64000D02*
X155772D01*
X154000Y62228D02*
Y65772D01*
X151728Y39500D02*
X155272D01*
X153500Y37728D02*
Y41272D01*
X74032Y110000D02*
X77969D01*
X76000Y108031D02*
Y111969D01*
X95000Y78130D02*
Y81870D01*
X93130Y80000D02*
X96870D01*
X82000Y73228D02*
Y76772D01*
X80228Y75000D02*
X83772D01*
X82500Y65130D02*
Y68870D01*
X80630Y67000D02*
X84370D01*
X85000Y41630D02*
Y45370D01*
X83130Y43500D02*
X86870D01*
X152110Y52500D02*
X155890D01*
X154000Y50610D02*
Y54390D01*
X152110Y28500D02*
X155890D01*
X154000Y26610D02*
Y30390D01*
D55*
X4921Y136035D02*
X47441D01*
X4921Y102965D02*
Y136035D01*
Y102965D02*
X47441D01*
Y136035D01*
X3965Y51921D02*
Y94441D01*
Y51921D02*
X37035D01*
Y94441D01*
X3965D02*
X37035D01*
X4465Y46941D02*
X37535D01*
Y4421D02*
Y46941D01*
X4465Y4421D02*
X37535D01*
X4465D02*
Y46941D01*
X160496Y60063D02*
Y67937D01*
X147504Y60063D02*
Y67937D01*
Y60063D02*
X160496D01*
X147504Y67937D02*
X160496D01*
X147004Y35563D02*
Y43437D01*
X159996Y35563D02*
Y43437D01*
X147004D02*
X159996D01*
X147004Y35563D02*
X159996D01*
X53165Y92283D02*
Y127717D01*
X98835Y92283D02*
Y127717D01*
X53165D02*
X98835D01*
X53165Y92283D02*
X98835D01*
X88307Y75866D02*
X101693D01*
X88307Y84134D02*
X101693D01*
Y75866D02*
Y84134D01*
X88307Y75866D02*
Y84134D01*
X75307Y70866D02*
X88693D01*
X75307Y79134D02*
X88693D01*
Y70866D02*
Y79134D01*
X75307Y70866D02*
Y79134D01*
X78169Y69362D02*
X86831D01*
X78169Y64638D02*
X86831D01*
X78169D02*
Y69362D01*
X86831Y64638D02*
Y69362D01*
X82638Y47831D02*
X87362D01*
X82638Y39169D02*
X87362D01*
Y47831D01*
X82638Y39169D02*
Y47831D01*
X161677Y48366D02*
Y56634D01*
X146323Y48366D02*
Y56634D01*
Y48366D02*
X161677D01*
X146323Y56634D02*
X161677D01*
X146323Y24366D02*
Y32634D01*
X161677Y24366D02*
Y32634D01*
X146323D02*
X161677D01*
X146323Y24366D02*
X161677D01*
M02*
