M48
;Layer_Color=9474304
;FILE_FORMAT=2:5
INCH,TZ
;TYPE=PLATED
T1F00S00C0.02800
T2F00S00C0.03346
T3F00S00C0.03543
T4F00S00C0.04331
%
T01
X61000Y57000
X66102Y52000
X77000Y50500
X75000Y62339
X66000Y67000
X47500Y77000
X142500Y64500
X141500Y52500
X129000Y49500
X124500Y33000
T02
X111000Y103500
X123500
X138000Y91000
X150000
Y131000
X138000
X123500Y143500
X111000
T03
X183500Y20000
Y30000
Y40000
Y50000
Y60000
Y70000
Y80000
Y90000
Y100000
Y110000
X173000Y141500
X163000
T04
X21000Y14658
Y34343
X20500Y62157
Y81842
X15157Y119500
X34843
M30
