G04*
G04 #@! TF.GenerationSoftware,Altium Limited,Altium Designer,19.1.8 (144)*
G04*
G04 Layer_Color=8388736*
%FSLAX25Y25*%
%MOIN*%
G70*
G01*
G75*
%ADD23R,0.03950X0.04737*%
%ADD24R,0.16548X0.08674*%
%ADD25R,0.10000X0.19800*%
%ADD26R,0.06500X0.01400*%
%ADD27R,0.04737X0.05131*%
%ADD28R,0.03359X0.04934*%
%ADD29R,0.03950X0.04343*%
%ADD30R,0.04343X0.03950*%
%ADD31R,0.05721X0.05131*%
%ADD32R,0.07099X0.07099*%
%ADD33C,0.07099*%
%ADD34R,0.07099X0.07099*%
%ADD35C,0.06312*%
%ADD36R,0.06706X0.06706*%
%ADD37C,0.06706*%
%ADD38R,0.06706X0.06706*%
%ADD39C,0.05800*%
D23*
X156953Y64000D02*
D03*
X151047D02*
D03*
X150547Y39500D02*
D03*
X156453D02*
D03*
D24*
X62024Y110000D02*
D03*
X89976D02*
D03*
D25*
X105500Y58500D02*
D03*
D26*
X116524Y72575D02*
D03*
Y70016D02*
D03*
Y67457D02*
D03*
Y64898D02*
D03*
Y62339D02*
D03*
Y59780D02*
D03*
Y57220D02*
D03*
Y54661D02*
D03*
Y52102D02*
D03*
Y49543D02*
D03*
Y46984D02*
D03*
Y44425D02*
D03*
X94476D02*
D03*
Y46984D02*
D03*
Y49543D02*
D03*
Y52102D02*
D03*
Y54661D02*
D03*
Y57220D02*
D03*
Y59780D02*
D03*
Y62339D02*
D03*
Y64898D02*
D03*
Y67457D02*
D03*
Y70016D02*
D03*
Y72575D02*
D03*
D27*
X97854Y80000D02*
D03*
X92146D02*
D03*
D28*
X85346Y75000D02*
D03*
X78654D02*
D03*
D29*
X80039Y67000D02*
D03*
X84961D02*
D03*
D30*
X85000Y45961D02*
D03*
Y41039D02*
D03*
D31*
X157346Y52500D02*
D03*
X150654D02*
D03*
Y28500D02*
D03*
X157346D02*
D03*
D32*
X34843Y119500D02*
D03*
D33*
X15157D02*
D03*
X20500Y62157D02*
D03*
X21000Y14658D02*
D03*
D34*
X20500Y81842D02*
D03*
X21000Y34343D02*
D03*
D35*
X150000Y91000D02*
D03*
Y131000D02*
D03*
X138000D02*
D03*
Y91000D02*
D03*
X111000Y143500D02*
D03*
Y103500D02*
D03*
X123500D02*
D03*
Y143500D02*
D03*
D36*
X183500Y20000D02*
D03*
D37*
Y30000D02*
D03*
Y50000D02*
D03*
Y60000D02*
D03*
Y70000D02*
D03*
Y80000D02*
D03*
Y90000D02*
D03*
Y100000D02*
D03*
Y110000D02*
D03*
Y40000D02*
D03*
X173000Y141500D02*
D03*
D38*
X163000D02*
D03*
D39*
X47500Y77000D02*
D03*
X61000Y57000D02*
D03*
X66000Y67000D02*
D03*
X124500Y33000D02*
D03*
X77000Y50500D02*
D03*
X75000Y62339D02*
D03*
X66102Y52000D02*
D03*
X141500Y52500D02*
D03*
X129000Y49500D02*
D03*
X142500Y64500D02*
D03*
M02*
