G04*
G04 #@! TF.GenerationSoftware,Altium Limited,Altium Designer,19.1.8 (144)*
G04*
G04 Layer_Color=0*
%FSLAX25Y25*%
%MOIN*%
G70*
G01*
G75*
%ADD56C,0.00050*%
D56*
X101007Y71296D02*
X100382Y71921D01*
X99757Y71296D01*
X100382Y70671D01*
X101007Y71296D01*
Y66177D02*
X100382Y66802D01*
X99757Y66177D01*
X100382Y65552D01*
X101007Y66177D01*
Y61059D02*
X100382Y61684D01*
X99757Y61059D01*
X100382Y60434D01*
X101007Y61059D01*
Y55941D02*
X100382Y56566D01*
X99757Y55941D01*
X100382Y55316D01*
X101007Y55941D01*
Y50823D02*
X100382Y51448D01*
X99757Y50823D01*
X100382Y50198D01*
X101007Y50823D01*
Y45705D02*
X100382Y46330D01*
X99757Y45705D01*
X100382Y45080D01*
X101007Y45705D01*
X111243Y71296D02*
X110618Y71921D01*
X109993Y71296D01*
X110618Y70671D01*
X111243Y71296D01*
Y66177D02*
X110618Y66802D01*
X109993Y66177D01*
X110618Y65552D01*
X111243Y66177D01*
Y61059D02*
X110618Y61684D01*
X109993Y61059D01*
X110618Y60434D01*
X111243Y61059D01*
Y55941D02*
X110618Y56566D01*
X109993Y55941D01*
X110618Y55316D01*
X111243Y55941D01*
Y50823D02*
X110618Y51448D01*
X109993Y50823D01*
X110618Y50198D01*
X111243Y50823D01*
Y45705D02*
X110618Y46330D01*
X109993Y45705D01*
X110618Y45080D01*
X111243Y45705D01*
X106125Y71296D02*
X105500Y71921D01*
X104875Y71296D01*
X105500Y70671D01*
X106125Y71296D01*
Y66177D02*
X105500Y66802D01*
X104875Y66177D01*
X105500Y65552D01*
X106125Y66177D01*
Y61059D02*
X105500Y61684D01*
X104875Y61059D01*
X105500Y60434D01*
X106125Y61059D01*
Y55941D02*
X105500Y56566D01*
X104875Y55941D01*
X105500Y55316D01*
X106125Y55941D01*
Y50823D02*
X105500Y51448D01*
X104875Y50823D01*
X105500Y50198D01*
X106125Y50823D01*
Y45705D02*
X105500Y46330D01*
X104875Y45705D01*
X105500Y45080D01*
X106125Y45705D01*
M02*
