G04*
G04 #@! TF.GenerationSoftware,Altium Limited,Altium Designer,19.1.8 (144)*
G04*
G04 Layer_Physical_Order=2*
G04 Layer_Color=16711680*
%FSLAX25Y25*%
%MOIN*%
G70*
G01*
G75*
%ADD14C,0.01000*%
%ADD42C,0.02000*%
%ADD43C,0.01500*%
%ADD44R,0.06299X0.06299*%
%ADD45C,0.06299*%
%ADD46R,0.06299X0.06299*%
%ADD47C,0.05512*%
%ADD48R,0.05906X0.05906*%
%ADD49C,0.05906*%
%ADD50R,0.05906X0.05906*%
%ADD51C,0.05000*%
D14*
X47500Y77000D02*
X49031D01*
X49765Y77735D01*
X52265D01*
X63000Y67000D01*
X66000D01*
X124500Y33000D02*
X125500D01*
X141500Y49000D02*
Y52500D01*
X125500Y33000D02*
X141500Y49000D01*
X129000Y49500D02*
Y51000D01*
X142500Y64500D01*
D42*
X48445Y34343D02*
X66102Y52000D01*
X21000Y34343D02*
X48445D01*
X41157Y14658D02*
X77000Y50500D01*
X21000Y14658D02*
X41157D01*
X40004Y62339D02*
X75000D01*
X20500Y81842D02*
X40004Y62339D01*
X25657Y57000D02*
X61000D01*
X20500Y62157D02*
X25657Y57000D01*
D43*
X21657Y35000D02*
X22500D01*
X21000Y34343D02*
X21657Y35000D01*
D44*
X34843Y119500D02*
D03*
D45*
X15157D02*
D03*
X20500Y62157D02*
D03*
X21000Y14658D02*
D03*
D46*
X20500Y81842D02*
D03*
X21000Y34343D02*
D03*
D47*
X150000Y91000D02*
D03*
Y131000D02*
D03*
X138000D02*
D03*
Y91000D02*
D03*
X111000Y143500D02*
D03*
Y103500D02*
D03*
X123500D02*
D03*
Y143500D02*
D03*
D48*
X183500Y20000D02*
D03*
D49*
Y30000D02*
D03*
Y50000D02*
D03*
Y60000D02*
D03*
Y70000D02*
D03*
Y80000D02*
D03*
Y90000D02*
D03*
Y100000D02*
D03*
Y110000D02*
D03*
Y40000D02*
D03*
X173000Y141500D02*
D03*
D50*
X163000D02*
D03*
D51*
X47500Y77000D02*
D03*
X61000Y57000D02*
D03*
X66000Y67000D02*
D03*
X124500Y33000D02*
D03*
X77000Y50500D02*
D03*
X75000Y62339D02*
D03*
X66102Y52000D02*
D03*
X141500Y52500D02*
D03*
X129000Y49500D02*
D03*
X142500Y64500D02*
D03*
M02*
