M48
;Layer_Color=9474304
;FILE_FORMAT=2:5
INCH,TZ
;TYPE=PLATED
T1F00S00C0.02800
T2F00S00C0.03346
T3F00S00C0.03504
T4F00S00C0.03543
T5F00S00C0.04331
%
T01
X66102Y52000
X67000Y63000
X75000Y62339
X77000Y50500
X60000Y59500
X49000Y78500
X142500Y64500
X141500Y52500
X129000Y49500
X124500Y33000
T02
X115500Y101000
Y114000
X155500
Y101000
T03
X21500Y138000
X31500
T04
X150654Y140000
X160654
X183500Y110000
Y100000
Y90000
Y80000
Y70000
Y60000
Y50000
Y40000
Y30000
Y20000
T05
X21500Y20157
Y39843
X22000Y78158
Y97843
M30
